<svg xmlns="http://www.w3.org/2000/svg"  viewBox="0 0 16 16" width="16px" height="16px" fill-rule="evenodd" clip-rule="evenodd" baseProfile="basic"><path fill="#b3e5fc" fill-rule="evenodd" d="M0.994,4.521v5.956	c0,1.943,1.579,3.521,3.523,3.521h5.956c1.944,0,3.523-1.579,3.523-3.521V4.521c0-1.943-1.579-3.521-3.523-3.521H4.517	C2.573,0.999,0.994,2.578,0.994,4.521z" clip-rule="evenodd"/><path fill="#212121" fill-rule="evenodd" d="M-0.004,9.999v-5	c0-2.953,2.047-5,5-5h5c2.952,0,5,2.047,5,5v5c0,2.952-2.048,5-5,5h-5C2.042,14.999-0.004,12.951-0.004,9.999z M12.995,9.999v-5	c0-1.848-1.155-3-3-3h-5c-1.848,0-3,1.153-3,3v5c0,1.104,0.896,2,2,2c0.509,0,0.975-0.191,1.329-0.505	c1.313,0.948,2.927,1.505,4.67,1.505C11.841,12.999,12.995,11.847,12.995,9.999z M2.996,9.999v-4c0-0.551,0.448-1,1-1	c-0.552,0-1-0.449-1-1.001s0.448-1.001,1-1.001s1,0.449,1,1.001s-0.448,1.001-1,1.001c0.551,0,1,0.449,1,1v4c0,0.552-0.449,1-1,1	C3.444,10.999,2.996,10.551,2.996,9.999z M5.996,9.999v-4c0-0.551,0.448-1,1-1c0.275,0,0.524,0.113,0.705,0.293	c0.392-0.188,0.832-0.293,1.296-0.293c1.656,0,3,1.347,2.999,3.001v1.999c0,0.552-0.449,1-1,1c-0.552,0-1-0.448-1-1v-2	c0-0.551-0.448-1-0.999-1c-0.555,0-1.001,0.449-1.001,1v2c0,0.552-0.449,1-1,1C6.444,10.999,5.996,10.551,5.996,9.999z" clip-rule="evenodd"/></svg>