<svg xmlns="http://www.w3.org/2000/svg"  viewBox="0 0 16 16" width="16px" height="16px" fill-rule="evenodd" clip-rule="evenodd" baseProfile="basic"><path fill="#b3e5fc" fill-rule="evenodd" d="M1.001,6.999l13.999-6	l-2,13L1.001,6.999z" clip-rule="evenodd"/><path fill="#212121" fill-rule="evenodd" d="M12.418,14.812	l-3.726-2.664L6.62,13.784c-0.432,0.343-1.061,0.268-1.404-0.165c-0.095-0.127-0.153-0.272-0.203-0.417L3.759,9.512l-3.209-1.62	C-0.207,7.511-0.172,6.414,0.607,6.08l13.999-6c0.72-0.308,1.501,0.297,1.383,1.072l-2,13	C13.876,14.887,13.024,15.246,12.418,14.812z M12.26,12.24l1.479-9.612L3.367,7.075l1.224,0.617l6.013-2.587	C11.588,4.68,12.462,5.91,11.737,6.7L8.862,9.811L12.26,12.24z" clip-rule="evenodd"/></svg>